<?xml version="1.0" encoding="utf-8"?>
<svg viewBox="0 0 392 392" xmlns="http://www.w3.org/2000/svg" xmlns:bx="https://boxy-svg.com">
  <defs>
    <linearGradient gradientUnits="userSpaceOnUse" x1="256" y1="128" x2="256" y2="368" id="gradient-0" gradientTransform="matrix(1, 0, 0, 1, 0, 0)">
      <stop offset="0" style="stop-color: rgba(0, 0, 0, 1)"/>
      <stop offset="1" style="stop-color: rgba(0, 0, 0, 1)"/>
    </linearGradient>
    <linearGradient gradientUnits="userSpaceOnUse" x1="256" y1="128" x2="256" y2="368" id="gradient-1" gradientTransform="matrix(1, 0, 0, 0.438319, 0, 71.89518)">
      <stop offset="0" style="stop-color: rgba(102, 102, 102, 1)"/>
      <stop offset="1" style="stop-color: rgba(51, 51, 51, 1)"/>
    </linearGradient>
  </defs>
  <title>ionicons-v5-f</title>
  <g transform="matrix(1, 0, 0, 1, -60, -60)">
    <path style="stroke: rgb(0, 0, 0); stroke-width: 8px; fill: rgb(144, 202, 249);" d="M 152 64 H 360 A 24 24 0 0 1 384 88 V 128 H 128 V 88 A 24 24 0 0 1 152 64 Z" bx:shape="rect 128 64 256 64 24 24 0 0 1@0a6ebfb0" bx:origin="0 0.5"/>
    <path d="M 384 368 L 408 368 C 430.064 367.934 447.934 350.064 448 328 L 448 168 C 447.934 145.936 430.064 128.066 408 128 L 104 128 C 81.936 128.066 64.066 145.936 64 168 L 64 328 C 64.066 350.064 81.936 367.934 104 368 L 128 368" style="stroke-linejoin: round; stroke-width: 8px; stroke: url(#gradient-0); paint-order: fill; fill: url(#gradient-1);"/>
    <path style="stroke: rgb(0, 0, 0); stroke-linejoin: round; stroke-width: 8px; fill: rgb(144, 202, 249);" d="M 128 240 H 384 V 424 A 24 24 0 0 1 360 448 H 152 A 24 24 0 0 1 128 424 V 240 Z" bx:shape="rect 128 240 256 208 0 0 24 24 1@e11745a6"/>
    <circle cx="392" cy="184" r="24" style="fill: rgb(0, 156, 127);"/>
    <line style="stroke-width: 28px; stroke: rgb(0, 87, 156);" x1="160" y1="303.712" x2="340" y2="303.712"/>
    <line style="stroke-width: 28px; stroke: rgb(0, 87, 156);" x1="160" y1="365.734" x2="280" y2="365.734"/>
  </g>
</svg>