<?xml version="1.0" encoding="utf-8"?>
<svg viewBox="0 0 416 416" xmlns="http://www.w3.org/2000/svg">
  <title>ionicons-v5-j</title>
  <circle style="fill: rgb(33, 150, 243);" cx="205.468" cy="211.164" r="187.27"/>
  <path d="M 208 0 C 93.31 0 0 93.31 0 208 C 0 322.69 93.31 416 208 416 C 322.69 416 416 322.69 416 208 C 416 93.31 322.69 0 208 0 Z M 210 96 C 265.426 96 300.067 156 272.354 204 C 244.641 252 175.359 252 147.646 204 C 141.327 193.055 138 180.639 138 168 C 138 128.235 170.235 96 210 96 Z M 208 384 C 158.921 384.02 112.075 363.495 78.82 327.4 C 87.66 281.62 167.06 272 208 272 C 248.94 272 328.34 281.62 337.18 327.39 C 303.929 363.491 257.081 384.021 208 384 Z" style="fill: rgb(0, 87, 156);"/>
</svg>